
<svg width="400" height="400" viewBox="0 0 400 400" fill="none" xmlns="http://www.w3.org/2000/svg">
<path d="M348.434 104.424V119.042" stroke="#BABABA" stroke-linecap="round" stroke-linejoin="round"/>
<path d="M341.142 111.715H355.726" stroke="#BABABA" stroke-linecap="round" stroke-linejoin="round"/>
<path d="M49.4214 48.0176V62.6019" stroke="#BABABA" stroke-linecap="round" stroke-linejoin="round"/>
<path d="M42.0957 55.3086H56.7139" stroke="#BABABA" stroke-linecap="round" stroke-linejoin="round"/>
<path d="M162.908 20.6477C164.743 20.6477 166.231 19.1596 166.231 17.3239C166.231 15.4881 164.743 14 162.908 14C161.072 14 159.584 15.4881 159.584 17.3239C159.584 19.1596 161.072 20.6477 162.908 20.6477Z" fill="#CFCFCF"/>
<path d="M269.475 152.789C241.086 152.789 212.189 151.636 185.157 144.106C158.634 136.746 134.281 122.467 112.575 105.949C98.3634 95.1977 85.441 86.6506 66.9902 87.9394C48.9243 88.9285 31.6568 95.7071 17.7427 107.272C-5.72788 127.622 -2.20051 165.711 7.1945 192.472C21.304 232.765 64.2429 260.679 100.738 278.926C142.896 299.988 189.227 312.199 235.659 319.253C276.36 325.426 328.66 329.937 363.933 303.346C396.324 278.926 405.21 223.166 397.274 185.519C395.35 174.387 389.428 164.34 380.621 157.266C357.862 140.646 323.911 151.737 298.338 152.314C288.841 152.517 279.175 152.755 269.475 152.789Z" fill="#F2F2F2"/>
<path d="M200.013 385.22C268.777 385.22 324.522 381.742 324.522 377.453C324.522 373.163 268.777 369.686 200.013 369.686C131.248 369.686 75.5034 373.163 75.5034 377.453C75.5034 381.742 131.248 385.22 200.013 385.22Z" fill="#F2F2F2"/>
<path d="M65.8027 213.502V228.12" stroke="#BABABA" stroke-linecap="round" stroke-linejoin="round"/>
<path d="M58.511 220.795H73.1292" stroke="#BABABA" stroke-linecap="round" stroke-linejoin="round"/>
<path d="M371.324 201.648C373.16 201.648 374.648 200.16 374.648 198.324C374.648 196.488 373.16 195 371.324 195C369.488 195 368 196.488 368 198.324C368 200.16 369.488 201.648 371.324 201.648Z" fill="#CFCFCF"/>
<path d="M265.726 264.191V242.519L320.063 156.914H338.748V186.911H327.689L293.435 241.121V242.138H370.651V264.191H265.726ZM328.198 287.07V257.581L328.706 247.985V156.914H354.509V287.07H328.198Z" fill="#D9D9D9"/>
<path fill-rule="evenodd" clip-rule="evenodd" d="M265.726 242.518V264.19H328.198V287.069H354.509V264.19H370.651V242.137H354.509V156.913H320.063L265.726 242.518ZM328.706 242.137V186.91H327.689L293.435 241.12V242.137H328.706ZM295.499 240.646H327.215V190.453L295.499 240.646ZM319.243 155.422L264.234 242.085V265.681H326.706V288.56H356V265.681H372.142V240.646H356V155.422H319.243Z" fill="#D9D9D9"/>
<path d="M41.4917 264.191V242.519L95.829 156.914H114.513V186.911H103.455L69.2006 241.121V242.138H146.417V264.191H41.4917ZM103.964 287.07V257.581L104.472 247.985V156.914H130.274V287.07H103.964Z" fill="#D9D9D9"/>
<path fill-rule="evenodd" clip-rule="evenodd" d="M41.4916 242.518V264.19H103.964V287.069H130.274V264.19H146.417V242.137H130.274V156.913H95.829L41.4916 242.518ZM104.472 242.137V186.91H103.455L69.2005 241.12V242.137H104.472ZM71.2645 240.646H102.981V190.453L71.2645 240.646ZM95.0092 155.422L40.0002 242.085V265.681H102.472V288.56H131.766V265.681H147.908V240.646H131.766V155.422H95.0092Z" fill="#D9D9D9"/>
<circle cx="206.071" cy="215.077" r="73.0769" fill="#D9D9D9"/>
<path d="M211.35 238.628C211.674 238.621 211.987 238.521 212.249 238.34C212.51 238.159 212.708 237.907 212.815 237.617C212.923 237.327 212.935 237.013 212.85 236.717C212.765 236.42 212.587 236.155 212.34 235.957C210.276 234.332 207.673 233.453 204.993 233.475C202.313 233.497 199.727 234.42 197.693 236.079C197.448 236.277 197.272 236.54 197.188 236.835C197.105 237.13 197.117 237.442 197.225 237.73C197.332 238.018 197.529 238.268 197.79 238.447C198.05 238.626 198.362 238.725 198.683 238.732L211.35 238.628Z" fill="#D9D9D9"/>
<circle cx="181.362" cy="205.087" r="4.20586" fill="#D9D9D9"/>
<circle cx="229.729" cy="205.087" r="4.20586" fill="#D9D9D9"/>
<path d="M268.34 274.632V252.961L322.677 167.355H341.362V197.352H330.304L296.049 251.562V252.579H373.265V274.632H268.34ZM330.812 297.511V268.023L331.321 258.426V167.355H357.123V297.511H330.812Z" fill="white"/>
<path fill-rule="evenodd" clip-rule="evenodd" d="M268.34 252.96V274.631H330.812V297.51H357.123V274.631H373.265V252.578H357.123V167.355H322.677L268.34 252.96ZM331.32 252.578V197.351H330.304L296.049 251.562V252.578H331.32ZM298.113 251.087H329.829V200.894L298.113 251.087ZM321.858 165.863L266.849 252.526V276.123H329.321V299.001H358.614V276.123H374.756V251.087H358.614V165.863H321.858Z" fill="#BABABA"/>
<path d="M44.106 274.632V252.961L98.4433 167.355H117.128V197.352H106.07L71.8148 251.562V252.579H149.031V274.632H44.106ZM106.578 297.511V268.023L107.086 258.426V167.355H132.889V297.511H106.578Z" fill="white"/>
<path fill-rule="evenodd" clip-rule="evenodd" d="M44.1059 252.96V274.631H106.578V297.51H132.889V274.631H149.031V252.578H132.889V167.355H98.4432L44.1059 252.96ZM107.086 252.578V197.351H106.07L71.8147 251.562V252.578H107.086ZM73.8787 251.087H105.595V200.894L73.8787 251.087ZM97.6234 165.863L42.6145 252.526V276.123H105.087V299.001H134.38V276.123H150.522V251.087H134.38V165.863H97.6234Z" fill="#BABABA"/>
<circle cx="208.686" cy="225.516" r="72.5769" fill="white" stroke="#BABABA"/>
<path d="M213.965 249.068C214.288 249.061 214.601 248.96 214.863 248.779C215.125 248.599 215.322 248.347 215.43 248.057C215.537 247.767 215.549 247.453 215.464 247.156C215.379 246.86 215.201 246.595 214.954 246.396C212.89 244.771 210.288 243.892 207.607 243.914C204.927 243.937 202.341 244.859 200.307 246.519C200.062 246.716 199.886 246.98 199.803 247.275C199.719 247.57 199.732 247.882 199.839 248.17C199.946 248.458 200.143 248.708 200.404 248.886C200.664 249.065 200.976 249.165 201.297 249.171L213.965 249.068Z" fill="white" stroke="#BABABA" stroke-linecap="round" stroke-linejoin="round"/>
<circle cx="183.976" cy="215.526" r="4.20586" fill="#D9D9D9"/>
<circle cx="232.343" cy="215.526" r="4.20586" fill="#D9D9D9"/>
</svg>
