
<svg width="400" height="400" viewBox="0 0 400 400" fill="none" xmlns="http://www.w3.org/2000/svg">
<path d="M264.402 171.519C238.128 171.519 211.383 170.451 186.365 163.483C161.817 156.671 139.279 143.455 119.189 128.168C106.036 118.217 94.0766 110.276 77.0002 111.468C60.2943 112.373 44.3188 118.611 31.4211 129.267C9.69878 148.29 12.9634 183.541 21.6586 208.214C34.7171 245.475 74.4575 271.435 108.234 288.229C147.252 307.722 190.132 319.054 233.105 325.552C270.774 331.297 319.178 335.44 351.825 310.861C381.803 288.229 390.027 236.623 382.682 201.779C380.899 191.486 375.418 182.198 367.269 175.662C346.206 160.249 314.784 170.546 291.115 171.048C282.326 171.236 273.38 171.456 264.402 171.519Z" fill="#F2F2F2"/>
<path d="M201.37 386.637C265.012 386.637 316.605 383.418 316.605 379.448C316.605 375.478 265.012 372.26 201.37 372.26C137.727 372.26 86.135 375.478 86.135 379.448C86.135 383.418 137.727 386.637 201.37 386.637Z" fill="#F2F2F2"/>
<path d="M38.7666 102.3L79.5743 98.8467C84.663 98.4011 89.7503 99.7171 93.9847 102.574C98.219 105.431 101.343 109.656 102.835 114.542L141.947 245.441L134.288 259.158C132.321 262.693 131.35 266.695 131.478 270.738C131.607 274.781 132.83 278.713 135.018 282.116C137.205 285.518 140.276 288.263 143.901 290.058C147.526 291.853 151.57 292.63 155.602 292.307L312.241 278.997" stroke="#BABABA" stroke-linecap="round" stroke-linejoin="round"/>
<path d="M108.673 134.414L290.739 118.97C292.532 118.816 294.337 119.068 296.02 119.707C297.703 120.346 299.22 121.356 300.46 122.662C301.699 123.967 302.628 125.535 303.179 127.249C303.729 128.963 303.887 130.779 303.64 132.562L291.304 221.617C290.929 224.289 289.667 226.757 287.719 228.624C285.772 230.492 283.253 231.65 280.568 231.913L141.947 245.442L108.673 134.414Z" fill="white" stroke="#BABABA" stroke-linecap="round" stroke-linejoin="round"/>
<path d="M173.024 322.316C181.19 322.316 187.809 315.697 187.809 307.531C187.809 299.366 181.19 292.746 173.024 292.746C164.859 292.746 158.239 299.366 158.239 307.531C158.239 315.697 164.859 322.316 173.024 322.316Z" fill="white" stroke="#BABABA" stroke-linecap="round" stroke-linejoin="round"/>
<path d="M275.985 313.591C284.151 313.591 290.77 306.972 290.77 298.806C290.77 290.641 284.151 284.021 275.985 284.021C267.82 284.021 261.2 290.641 261.2 298.806C261.2 306.972 267.82 313.591 275.985 313.591Z" fill="white" stroke="#BABABA" stroke-linecap="round" stroke-linejoin="round"/>
<path d="M71.0813 95.3152L32.6092 98.5796C29.2752 98.8625 26.8018 101.795 27.0847 105.128C27.3676 108.462 30.2997 110.936 33.6336 110.653L72.1058 107.389C75.4398 107.106 77.9131 104.174 77.6303 100.84C77.3474 97.5057 74.4153 95.0323 71.0813 95.3152Z" fill="#D2D2D2"/>
<path d="M234.179 175.357C236.11 175.158 237.514 173.43 237.315 171.499C237.115 169.568 235.388 168.164 233.456 168.363C231.525 168.563 230.121 170.29 230.321 172.222C230.52 174.153 232.248 175.557 234.179 175.357Z" fill="#BABABA"/>
<path d="M192.22 179.691C194.151 179.492 195.555 177.764 195.356 175.833C195.156 173.902 193.429 172.498 191.497 172.697C189.566 172.897 188.162 174.624 188.361 176.556C188.561 178.487 190.288 179.891 192.22 179.691Z" fill="#BABABA"/>
<path d="M80.2964 303.168V316.697" stroke="#BABABA" stroke-linecap="round" stroke-linejoin="round"/>
<path d="M73.5474 309.92H87.0453" stroke="#BABABA" stroke-linecap="round" stroke-linejoin="round"/>
<path d="M295.981 51.6699V65.1679" stroke="#BABABA" stroke-linecap="round" stroke-linejoin="round"/>
<path d="M289.232 58.4219H302.73" stroke="#BABABA" stroke-linecap="round" stroke-linejoin="round"/>
<path d="M136.172 92.0039V105.502" stroke="#BABABA" stroke-linecap="round" stroke-linejoin="round"/>
<path d="M129.391 98.7559H142.921" stroke="#BABABA" stroke-linecap="round" stroke-linejoin="round"/>
<path d="M329.663 141.632C331.432 141.632 332.865 140.199 332.865 138.43C332.865 136.662 331.432 135.229 329.663 135.229C327.895 135.229 326.461 136.662 326.461 138.43C326.461 140.199 327.895 141.632 329.663 141.632Z" fill="white" stroke="#BABABA" stroke-linecap="round" stroke-linejoin="round"/>
<path d="M210.002 112.848C211.701 112.848 213.078 111.471 213.078 109.772C213.078 108.073 211.701 106.695 210.002 106.695C208.303 106.695 206.926 108.073 206.926 109.772C206.926 111.471 208.303 112.848 210.002 112.848Z" fill="#CFCFCF"/>
<path d="M230.657 336.1C232.356 336.1 233.733 334.723 233.733 333.024C233.733 331.325 232.356 329.947 230.657 329.947C228.958 329.947 227.581 331.325 227.581 333.024C227.581 334.723 228.958 336.1 230.657 336.1Z" fill="#CFCFCF"/>
<path d="M220.539 74.2853C219.852 73.594 219.459 72.6642 219.442 71.6901C219.426 70.716 219.786 69.7732 220.448 69.0585L244.874 42.694C245.22 42.3206 245.638 42.021 246.103 41.8132C246.568 41.6054 247.07 41.4938 247.579 41.4849C248.088 41.4761 248.593 41.5703 249.065 41.7619C249.537 41.9534 249.965 42.2383 250.324 42.5995L252.432 44.723C252.791 45.0842 253.073 45.5143 253.261 45.9873C253.449 46.4603 253.54 46.9665 253.528 47.4755C253.515 47.9844 253.4 48.4856 253.189 48.9489C252.978 49.4122 252.675 49.828 252.299 50.1714L225.765 74.4124C225.046 75.0697 224.1 75.4234 223.126 75.3997C222.152 75.376 221.225 74.9767 220.539 74.2853V74.2853Z" fill="#1064DC"/>
<path d="M205.077 65.3015C204.493 65.0427 204.032 64.5681 203.79 63.9771C203.547 63.3861 203.543 62.7243 203.777 62.13L212.422 40.2063C212.544 39.8957 212.728 39.6132 212.963 39.3756C213.197 39.138 213.477 38.9502 213.786 38.8236C214.095 38.697 214.426 38.6342 214.76 38.6389C215.094 38.6436 215.423 38.7158 215.728 38.8511L217.522 39.6462C217.827 39.7815 218.102 39.977 218.33 40.2212C218.557 40.4653 218.733 40.753 218.847 41.0668C218.961 41.3807 219.01 41.7143 218.991 42.0476C218.972 42.3809 218.887 42.707 218.739 43.0062L208.301 64.1348C208.018 64.7077 207.525 65.149 206.924 65.3664C206.323 65.5838 205.661 65.5606 205.077 65.3015Z" fill="#1064DC"/>
<path d="M189.347 68.8806C187.355 69.2393 185.356 67.5299 184.816 65.0057L175.228 20.1848C174.656 17.5062 175.939 14.9587 178.052 14.5778L180.997 14.0477C183.11 13.6672 185.202 15.6081 185.599 18.3174L192.242 63.6682C192.616 66.2232 191.339 68.522 189.347 68.8806Z" fill="#1064DC"/>
<path d="M221.33 198.671C221.635 198.633 221.922 198.507 222.152 198.311C222.382 198.114 222.544 197.856 222.617 197.572C222.69 197.287 222.671 196.989 222.562 196.716C222.453 196.444 222.258 196.211 222.005 196.047C219.893 194.712 217.346 194.134 214.812 194.418C212.279 194.701 209.923 195.826 208.161 197.595C207.948 197.806 207.808 198.072 207.757 198.36C207.707 198.647 207.75 198.941 207.879 199.203C208.009 199.464 208.22 199.682 208.484 199.825C208.748 199.969 209.052 200.033 209.357 200.008L221.33 198.671Z" fill="white" stroke="#BABABA" stroke-linecap="round" stroke-linejoin="round"/>
</svg>
