
<svg width="400" height="400" viewBox="0 0 400 400" fill="none" xmlns="http://www.w3.org/2000/svg">
<path d="M348.433 104.424V119.042" stroke="#BABABA" stroke-linecap="round" stroke-linejoin="round"/>
<path d="M341.142 111.715H355.726" stroke="#BABABA" stroke-linecap="round" stroke-linejoin="round"/>
<path d="M49.4214 48.0176V62.6019" stroke="#BABABA" stroke-linecap="round" stroke-linejoin="round"/>
<path d="M42.0957 55.3086H56.7139" stroke="#BABABA" stroke-linecap="round" stroke-linejoin="round"/>
<path d="M162.908 20.6477C164.743 20.6477 166.231 19.1596 166.231 17.3239C166.231 15.4881 164.743 14 162.908 14C161.072 14 159.584 15.4881 159.584 17.3239C159.584 19.1596 161.072 20.6477 162.908 20.6477Z" fill="#CFCFCF"/>
<path d="M269.475 152.789C241.086 152.789 212.189 151.636 185.157 144.106C158.634 136.746 134.281 122.467 112.575 105.949C98.3634 95.1977 85.441 86.6506 66.9902 87.9394C48.9243 88.9285 31.6568 95.7071 17.7427 107.272C-5.72788 127.622 -2.20051 165.711 7.1945 192.472C21.304 232.765 64.2429 260.679 100.738 278.926C142.896 299.988 189.227 312.199 235.659 319.253C276.36 325.426 328.66 329.937 363.933 303.346C396.324 278.926 405.21 223.166 397.274 185.519C395.35 174.387 389.428 164.34 380.621 157.266C357.862 140.646 323.911 151.737 298.338 152.314C288.841 152.517 279.175 152.755 269.475 152.789Z" fill="#F2F2F2"/>
<path d="M200.013 385.22C268.777 385.22 324.522 381.742 324.522 377.453C324.522 373.163 268.777 369.686 200.013 369.686C131.248 369.686 75.5034 373.163 75.5034 377.453C75.5034 381.742 131.248 385.22 200.013 385.22Z" fill="#F2F2F2"/>
<path d="M252.899 25.2638L87.1284 47.6769C81.8194 48.3947 78.0975 53.2804 78.8153 58.5894L110.962 296.355C111.68 301.664 116.566 305.386 121.875 304.668L287.645 282.255C292.954 281.537 296.676 276.651 295.958 271.342L263.811 33.5769C263.093 28.2679 258.208 24.546 252.899 25.2638Z" fill="#D2D2D2"/>
<path d="M307.971 60.1582H140.692C135.335 60.1582 130.992 64.5012 130.992 69.8585V309.787C130.992 315.145 135.335 319.488 140.692 319.488H307.971C313.328 319.488 317.671 315.145 317.671 309.787V69.8585C317.671 64.5012 313.328 60.1582 307.971 60.1582Z" fill="white" stroke="#BABABA" stroke-linecap="round" stroke-linejoin="round"/>
<path d="M264.523 246.432H184.105C181.09 246.432 178.645 248.876 178.645 251.892V251.926C178.645 254.942 181.09 257.387 184.105 257.387H264.523C267.538 257.387 269.983 254.942 269.983 251.926V251.892C269.983 248.876 267.538 246.432 264.523 246.432Z" fill="#D2D2D2"/>
<path d="M261.639 291.205H184.478C183.56 291.205 182.816 291.949 182.816 292.867V293.376C182.816 294.294 183.56 295.038 184.478 295.038H261.639C262.557 295.038 263.301 294.294 263.301 293.376V292.867C263.301 291.949 262.557 291.205 261.639 291.205Z" fill="#D2D2D2"/>
<path d="M281.312 273.26H167.656C166.438 273.26 165.451 274.247 165.451 275.464C165.451 276.682 166.438 277.669 167.656 277.669H281.312C282.529 277.669 283.516 276.682 283.516 275.464C283.516 274.247 282.529 273.26 281.312 273.26Z" fill="#D2D2D2"/>
<path d="M302.53 68.0605H146.987C143.128 68.0605 140 71.1887 140 75.0475V209.935C140 213.794 143.128 216.922 146.987 216.922H302.53C306.389 216.922 309.517 213.794 309.517 209.935V75.0475C309.517 71.1887 306.389 68.0605 302.53 68.0605Z" fill="white" stroke="#BABABA" stroke-linecap="round" stroke-linejoin="round"/>
<path d="M230.521 175.902C230.828 175.895 231.126 175.799 231.375 175.627C231.624 175.455 231.812 175.216 231.914 174.94C232.016 174.664 232.028 174.366 231.947 174.083C231.866 173.801 231.697 173.549 231.462 173.361C229.499 171.815 227.024 170.979 224.475 171C221.926 171.022 219.466 171.899 217.532 173.477C217.299 173.665 217.131 173.916 217.052 174.196C216.972 174.477 216.984 174.774 217.087 175.047C217.189 175.321 217.376 175.559 217.624 175.729C217.871 175.899 218.168 175.994 218.473 176L230.521 175.902Z" fill="white" stroke="#BABABA" stroke-linecap="round" stroke-linejoin="round"/>
<path d="M65.8027 213.502V228.12" stroke="#BABABA" stroke-linecap="round" stroke-linejoin="round"/>
<path d="M58.511 220.795H73.1292" stroke="#BABABA" stroke-linecap="round" stroke-linejoin="round"/>
<path d="M342.261 223.845C344.097 223.845 345.585 222.357 345.585 220.521C345.585 218.685 344.097 217.197 342.261 217.197C340.426 217.197 338.937 218.685 338.937 220.521C338.937 222.357 340.426 223.845 342.261 223.845Z" fill="#CFCFCF"/>
<circle cx="196" cy="138" r="4" fill="#D9D9D9"/>
<circle cx="252" cy="138" r="4" fill="#D9D9D9"/>
</svg>
