
<svg width="400" height="400" viewBox="0 0 400 400" fill="none" xmlns="http://www.w3.org/2000/svg">
<path d="M234.649 156.266C209.892 156.414 184.751 155.256 161.235 148.694C137.719 142.131 116.921 129.749 98.0139 115.288C85.6356 105.875 74.3798 98.3927 58.3086 99.521C42.595 100.351 27.5647 106.244 15.4422 116.328C-5.0013 134.322 -1.89931 167.579 6.25446 190.977C18.5442 226.224 55.9452 250.691 87.7036 266.637C124.425 285.076 164.751 295.796 205.195 301.942C240.646 307.347 286.171 311.296 316.866 288.016C345.079 266.666 352.819 217.85 345.906 184.89C344.224 175.155 339.067 166.371 331.401 160.185C311.578 145.635 282.035 155.345 259.76 155.85C251.636 156.028 243.098 156.236 234.649 156.266Z" fill="#F2F2F2"/>
<path d="M113.861 42V54.4386" stroke="#CFCFCF" stroke-width="0.85" stroke-linecap="round" stroke-linejoin="round"/>
<path d="M108.12 48.6973H120.559" stroke="#CFCFCF" stroke-width="0.85" stroke-linecap="round" stroke-linejoin="round"/>
<path d="M354.979 295.557V307.995" stroke="#CFCFCF" stroke-width="0.85" stroke-linecap="round" stroke-linejoin="round"/>
<path d="M348.281 301.297H360.72" stroke="#CFCFCF" stroke-width="0.85" stroke-linecap="round" stroke-linejoin="round"/>
<path d="M17.7012 240.061C19.5507 240.061 21.05 238.776 21.05 237.191C21.05 235.605 19.5507 234.32 17.7012 234.32C15.8516 234.32 14.3523 235.605 14.3523 237.191C14.3523 238.776 15.8516 240.061 17.7012 240.061Z" fill="#CFCFCF"/>
<path d="M264.081 54.4382C265.138 54.4382 265.995 53.153 265.995 51.5677C265.995 49.9824 265.138 48.6973 264.081 48.6973C263.024 48.6973 262.167 49.9824 262.167 51.5677C262.167 53.153 263.024 54.4382 264.081 54.4382Z" fill="#CFCFCF"/>
<path d="M183.709 358.706C243.422 358.706 291.829 355.922 291.829 352.487C291.829 349.052 243.422 346.268 183.709 346.268C123.995 346.268 75.5884 349.052 75.5884 352.487C75.5884 355.922 123.995 358.706 183.709 358.706Z" fill="#F2F2F2"/>
<path d="M100.088 75.4883H257.889C261.815 75.4883 265.581 77.0537 268.357 79.8403C271.133 82.6268 272.693 86.4061 272.693 90.3469V278.784C272.693 282.724 271.133 286.504 268.357 289.29C265.581 292.077 261.815 293.642 257.889 293.642H79.8666C75.9406 293.642 72.1754 292.077 69.3992 289.29C66.6231 286.504 65.0635 282.724 65.0635 278.784V111L100.088 75.4883Z" fill="white" stroke="#BABABA" stroke-linecap="round" stroke-linejoin="round"/>
<path d="M272.692 168.301H110.034V295.557H272.692V168.301Z" fill="#D2D2D2"/>
<path d="M65.0635 111.847H93.2778C94.9331 111.839 96.5179 111.146 97.6856 109.921C98.8533 108.695 99.5089 107.035 99.5088 105.306V75.4883L65.0635 111.847Z" fill="white" stroke="#BABABA" stroke-linecap="round" stroke-linejoin="round"/>
<path d="M271.873 126.199H110.854C104.588 126.199 99.5088 131.302 99.5088 137.598V172.21C99.5088 178.505 104.588 183.608 110.854 183.608H271.873C278.138 183.608 283.217 178.505 283.217 172.21V137.598C283.217 131.302 278.138 126.199 271.873 126.199Z" fill="white" stroke="#BABABA" stroke-linecap="round" stroke-linejoin="round"/>
<path d="M130.127 164.472C135.411 164.472 139.695 160.188 139.695 154.904C139.695 149.62 135.411 145.336 130.127 145.336C124.843 145.336 120.559 149.62 120.559 154.904C120.559 160.188 124.843 164.472 130.127 164.472Z" fill="#1064DC"/>
<path d="M161.702 164.472C166.986 164.472 171.27 160.188 171.27 154.904C171.27 149.62 166.986 145.336 161.702 145.336C156.418 145.336 152.134 149.62 152.134 154.904C152.134 160.188 156.418 164.472 161.702 164.472Z" fill="#1064DC"/>
<path d="M192.32 164.472C198.133 164.472 202.845 160.188 202.845 154.904C202.845 149.62 198.133 145.336 192.32 145.336C186.507 145.336 181.795 149.62 181.795 154.904C181.795 160.188 186.507 164.472 192.32 164.472Z" fill="#1064DC"/>
<path d="M271.873 189.35H110.854C104.588 189.35 99.5088 194.453 99.5088 200.748V235.36C99.5088 241.655 104.588 246.759 110.854 246.759H271.873C278.138 246.759 283.217 241.655 283.217 235.36V200.748C283.217 194.453 278.138 189.35 271.873 189.35Z" fill="white" stroke="#BABABA" stroke-linecap="round" stroke-linejoin="round"/>
<path d="M130.127 227.623C135.411 227.623 139.695 223.339 139.695 218.054C139.695 212.77 135.411 208.486 130.127 208.486C124.843 208.486 120.559 212.77 120.559 218.054C120.559 223.339 124.843 227.623 130.127 227.623Z" fill="#1064DC"/>
<path d="M161.702 227.623C166.986 227.623 171.27 223.339 171.27 218.054C171.27 212.77 166.986 208.486 161.702 208.486C156.418 208.486 152.134 212.77 152.134 218.054C152.134 223.339 156.418 227.623 161.702 227.623Z" fill="#1064DC"/>
<path d="M192.32 227.623C198.133 227.623 202.845 223.339 202.845 218.054C202.845 212.77 198.133 208.486 192.32 208.486C186.507 208.486 181.795 212.77 181.795 218.054C181.795 223.339 186.507 227.623 192.32 227.623Z" fill="#1064DC"/>
<path d="M271.873 253.457H110.854C104.588 253.457 99.5088 258.475 99.5088 264.666V298.701C99.5088 304.891 104.588 309.909 110.854 309.909H271.873C278.138 309.909 283.217 304.891 283.217 298.701V264.666C283.217 258.475 278.138 253.457 271.873 253.457Z" fill="white" stroke="#BABABA" stroke-linecap="round" stroke-linejoin="round"/>
<path d="M130.127 290.771C135.411 290.771 139.695 286.702 139.695 281.682C139.695 276.661 135.411 272.592 130.127 272.592C124.843 272.592 120.559 276.661 120.559 281.682C120.559 286.702 124.843 290.771 130.127 290.771Z" fill="#1064DC"/>
<path d="M161.702 290.771C166.986 290.771 171.27 286.702 171.27 281.682C171.27 276.661 166.986 272.592 161.702 272.592C156.418 272.592 152.134 276.661 152.134 281.682C152.134 286.702 156.418 290.771 161.702 290.771Z" fill="#1064DC"/>
<path d="M192.32 290.771C198.133 290.771 202.845 286.702 202.845 281.682C202.845 276.661 198.133 272.592 192.32 272.592C186.507 272.592 181.795 276.661 181.795 281.682C181.795 286.702 186.507 290.771 192.32 290.771Z" fill="#1064DC"/>
<path d="M285.131 197.961C318.951 197.961 346.367 170.544 346.367 136.724C346.367 102.905 318.951 75.4883 285.131 75.4883C251.311 75.4883 223.895 102.905 223.895 136.724C223.895 170.544 251.311 197.961 285.131 197.961Z" fill="white" stroke="#BABABA" stroke-linecap="round" stroke-linejoin="round"/>
<path d="M329.145 181.695L344.454 197.961" stroke="#BABABA" stroke-linecap="round" stroke-linejoin="round"/>
<path d="M343.299 190.548L338.24 195.84C335.964 198.221 336.05 201.995 338.43 204.271L382.389 246.294C384.77 248.57 388.544 248.485 390.82 246.104L395.879 240.812C398.155 238.431 398.07 234.656 395.689 232.381L351.731 190.358C349.35 188.082 345.575 188.167 343.299 190.548Z" fill="white" stroke="#BABABA" stroke-linecap="round" stroke-linejoin="round"/>
</svg>
