
<svg width="32" height="32" viewBox="0 0 32 32" fill="none" xmlns="http://www.w3.org/2000/svg">
<path d="M8.00001 25.5996C6.88889 25.5996 5.94445 25.2107 5.16667 24.4329C4.38889 23.6552 4.00001 22.7107 4.00001 21.5996H1.60001V7.99961C1.60001 7.33961 1.83501 6.77461 2.30501 6.30461C2.77501 5.83461 3.34001 5.59961 4.00001 5.59961H22.4V10.3996H26.4L30.4 15.9996V21.5996H28C28 22.7107 27.6111 23.6552 26.8333 24.4329C26.0556 25.2107 25.1111 25.5996 24 25.5996C22.8889 25.5996 21.9444 25.2107 21.1667 24.4329C20.3889 23.6552 20 22.7107 20 21.5996H12C12 22.7107 11.6111 23.6552 10.8333 24.4329C10.0556 25.2107 9.11112 25.5996 8.00001 25.5996ZM8.00001 23.1996C8.45334 23.1996 8.83334 23.0463 9.14001 22.7396C9.44667 22.4329 9.60001 22.0529 9.60001 21.5996C9.60001 21.1463 9.44667 20.7663 9.14001 20.4596C8.83334 20.1529 8.45334 19.9996 8.00001 19.9996C7.54667 19.9996 7.16667 20.1529 6.86001 20.4596C6.55334 20.7663 6.40001 21.1463 6.40001 21.5996C6.40001 22.0529 6.55334 22.4329 6.86001 22.7396C7.16667 23.0463 7.54667 23.1996 8.00001 23.1996ZM4.00001 19.1996H4.80001C5.17778 18.6885 5.64445 18.2941 6.20001 18.0163C6.75556 17.7385 7.35556 17.5996 8.00001 17.5996C8.64445 17.5996 9.24445 17.7385 9.80001 18.0163C10.3556 18.2941 10.817 18.6885 11.1843 19.1996H20V7.99961H4.00001V19.1996ZM24 23.1996C24.4533 23.1996 24.8333 23.0463 25.14 22.7396C25.4467 22.4329 25.6 22.0529 25.6 21.5996C25.6 21.1463 25.4467 20.7663 25.14 20.4596C24.8333 20.1529 24.4533 19.9996 24 19.9996C23.5467 19.9996 23.1667 20.1529 22.86 20.4596C22.5533 20.7663 22.4 21.1463 22.4 21.5996C22.4 22.0529 22.5533 22.4329 22.86 22.7396C23.1667 23.0463 23.5467 23.1996 24 23.1996ZM22.4 16.7996L28 16.7663L25.1667 12.7996H22.4V16.7996Z" fill="black"/>
</svg>
