
<svg width="16" height="16" viewBox="0 0 16 16" fill="none" xmlns="http://www.w3.org/2000/svg">
<path d="M7.4501 14.6673C7.28343 14.6673 7.11676 14.634 6.9501 14.5673C6.78343 14.5007 6.63343 14.4007 6.5001 14.2673L1.73343 9.50065C1.6001 9.36732 1.50288 9.2201 1.44176 9.05898C1.38065 8.89787 1.3501 8.73398 1.3501 8.56732C1.3501 8.40065 1.38065 8.23398 1.44176 8.06732C1.50288 7.90065 1.6001 7.75065 1.73343 7.61732L7.6001 1.73398C7.72232 1.61176 7.86676 1.51454 8.03343 1.44232C8.2001 1.3701 8.37232 1.33398 8.5501 1.33398H13.3334C13.7001 1.33398 14.014 1.46454 14.2751 1.72565C14.5362 1.98676 14.6668 2.30065 14.6668 2.66732V7.45065C14.6668 7.62843 14.6334 7.79787 14.5668 7.95898C14.5001 8.1201 14.4057 8.26176 14.2834 8.38398L8.4001 14.2673C8.26676 14.4007 8.11676 14.5007 7.9501 14.5673C7.78343 14.634 7.61676 14.6673 7.4501 14.6673ZM11.6668 5.33398C11.9445 5.33398 12.1807 5.23676 12.3751 5.04232C12.5695 4.84787 12.6668 4.61176 12.6668 4.33398C12.6668 4.05621 12.5695 3.8201 12.3751 3.62565C12.1807 3.43121 11.9445 3.33398 11.6668 3.33398C11.389 3.33398 11.1529 3.43121 10.9584 3.62565C10.764 3.8201 10.6668 4.05621 10.6668 4.33398C10.6668 4.61176 10.764 4.84787 10.9584 5.04232C11.1529 5.23676 11.389 5.33398 11.6668 5.33398Z" fill="#2FA804"/>
</svg>
