
<svg width="238" height="24" viewBox="0 0 238 24" fill="none" xmlns="http://www.w3.org/2000/svg">
<g clip-path="url(#clip0_842_8069)">
<path opacity="0.07" d="M235 0H203C201.3 0 200 1.3 200 3V21C200 22.7 201.4 24 203 24H235C236.7 24 238 22.7 238 21V3C238 1.3 236.6 0 235 0Z" fill="black"/>
<path d="M235 1C236.1 1 237 1.9 237 3V21C237 22.1 236.1 23 235 23H203C201.9 23 201 22.1 201 21V3C201 1.9 201.9 1 203 1H235Z" fill="white"/>
<path d="M203.57 7.16004H202V12.66H203.57C204.4 12.66 205 12.46 205.53 12.03C206.16 11.51 206.53 10.73 206.53 9.92004C206.52 8.29004 205.31 7.16004 203.57 7.16004ZM204.83 11.3C204.49 11.6 204.06 11.74 203.36 11.74H203.07V8.10004H203.36C204.05 8.10004 204.47 8.22004 204.83 8.54004C205.2 8.87004 205.42 9.38004 205.42 9.91004C205.42 10.44 205.2 10.97 204.83 11.3ZM207.02 7.16004H208.09V12.66H207.02V7.16004ZM210.71 9.27004C210.07 9.03004 209.88 8.87004 209.88 8.58004C209.88 8.23004 210.22 7.97004 210.68 7.97004C211 7.97004 211.27 8.10004 211.54 8.42004L212.1 7.69004C211.64 7.29004 211.09 7.08004 210.48 7.08004C209.51 7.08004 208.76 7.76004 208.76 8.66004C208.76 9.42004 209.11 9.81004 210.11 10.17C210.53 10.32 210.74 10.42 210.85 10.48C211.06 10.62 211.17 10.82 211.17 11.05C211.17 11.5 210.82 11.83 210.34 11.83C209.83 11.83 209.42 11.57 209.17 11.1L208.48 11.77C208.97 12.5 209.57 12.82 210.38 12.82C211.49 12.82 212.28 12.08 212.28 11.01C212.3 10.12 211.93 9.72004 210.71 9.27004ZM212.63 9.92004C212.63 11.54 213.9 12.79 215.53 12.79C215.99 12.79 216.39 12.7 216.87 12.47V11.21C216.44 11.64 216.06 11.81 215.58 11.81C214.5 11.81 213.73 11.03 213.73 9.91004C213.73 8.85004 214.52 8.02004 215.53 8.02004C216.04 8.02004 216.43 8.20004 216.87 8.64004V7.38004C216.4 7.14004 216.01 7.04004 215.55 7.04004C213.94 7.04004 212.63 8.32004 212.63 9.92004ZM225.39 10.86L223.92 7.16004H222.75L225.08 12.8H225.66L228.03 7.16004H226.87L225.39 10.86ZM228.52 12.66H231.56V11.73H229.59V10.25H231.49V9.32004H229.59V8.10004H231.56V7.16004H228.52V12.66ZM235.81 8.79004C235.81 7.76004 235.1 7.17004 233.86 7.17004H232.27V12.67H233.34V10.46H233.48L234.96 12.67H236.28L234.55 10.35C235.36 10.18 235.81 9.63004 235.81 8.79004ZM233.65 9.70004H233.34V8.03004H233.67C234.34 8.03004 234.7 8.31004 234.7 8.85004C234.7 9.40004 234.34 9.70004 233.65 9.70004Z" fill="#231F20"/>
<path d="M220.16 12.86C220.937 12.86 221.683 12.5512 222.233 12.0016C222.782 11.4519 223.091 10.7064 223.091 9.92905C223.091 9.1517 222.782 8.40619 222.233 7.85652C221.683 7.30685 220.937 6.99805 220.16 6.99805C219.383 6.99805 218.637 7.30685 218.087 7.85652C217.538 8.40619 217.229 9.1517 217.229 9.92905C217.229 10.7064 217.538 11.4519 218.087 12.0016C218.637 12.5512 219.383 12.86 220.16 12.86Z" fill="url(#paint0_linear_842_8069)"/>
<path opacity="0.65" d="M220.16 12.86C220.937 12.86 221.683 12.5512 222.233 12.0016C222.782 11.4519 223.091 10.7064 223.091 9.92905C223.091 9.1517 222.782 8.40619 222.233 7.85652C221.683 7.30685 220.937 6.99805 220.16 6.99805C219.383 6.99805 218.637 7.30685 218.087 7.85652C217.538 8.40619 217.229 9.1517 217.229 9.92905C217.229 10.7064 217.538 11.4519 218.087 12.0016C218.637 12.5512 219.383 12.86 220.16 12.86Z" fill="url(#paint1_linear_842_8069)"/>
<path d="M236.57 7.50645C236.57 7.40645 236.5 7.35645 236.39 7.35645H236.23V7.83645H236.35V7.64645L236.49 7.83645H236.63L236.47 7.63645C236.53 7.62645 236.57 7.57645 236.57 7.50645ZM236.37 7.57645H236.35V7.44645H236.37C236.43 7.44645 236.46 7.46645 236.46 7.50645C236.46 7.55645 236.43 7.57645 236.37 7.57645Z" fill="#231F20"/>
<path d="M236.41 7.17578C236.18 7.17578 235.99 7.36578 235.99 7.59578C235.99 7.82578 236.18 8.01578 236.41 8.01578C236.64 8.01578 236.83 7.82578 236.83 7.59578C236.83 7.36578 236.64 7.17578 236.41 7.17578ZM236.41 7.94578C236.23 7.94578 236.07 7.79578 236.07 7.59578C236.07 7.40578 236.22 7.24578 236.41 7.24578C236.59 7.24578 236.74 7.40578 236.74 7.59578C236.74 7.78578 236.59 7.94578 236.41 7.94578Z" fill="#231F20"/>
<path d="M237 12.9844C237 12.9844 227.09 19.8734 208.976 23.0004H234.999C235.527 23.0004 236.033 22.7919 236.408 22.4203C236.782 22.0486 236.995 21.544 236.999 21.0164L237.023 17.9964L237 12.9844Z" fill="#F48120"/>
</g>
<g clip-path="url(#clip1_842_8069)">
<path opacity="0.07" d="M195 0H163C161.3 0 160 1.3 160 3V21C160 22.7 161.4 24 163 24H195C196.7 24 198 22.7 198 21V3C198 1.3 196.6 0 195 0Z" fill="black"/>
<path d="M195 1C196.1 1 197 1.9 197 3V21C197 22.1 196.1 23 195 23H163C161.9 23 161 22.1 161 21V3C161 1.9 161.9 1 163 1H195Z" fill="white"/>
<path d="M172 12V15.7C172 16 171.8 16 171.5 15.9C169.6 15.1 168.5 12.6 169.2 10.5C169.6 9.4 170.4 8.5 171.5 8.1C171.9 7.9 172 8 172 8.3V12ZM174 12V8.3C174 8 174 8 174.3 8.1C176.4 8.9 177.5 11.4 176.7 13.5C176.3 14.6 175.5 15.5 174.4 15.9C174 16.1 174 16 174 15.7V12ZM181.2 5H173C176.8 5 179.8 8.1 179.8 12C179.8 15.9 176.8 19 173 19H181.2C185 19 188 15.9 188 12C188 8.1 185 5 181.2 5Z" fill="#3086C8"/>
</g>
<g clip-path="url(#clip2_842_8069)">
<path opacity="0.07" d="M155 0H123C121.3 0 120 1.3 120 3V21C120 22.7 121.4 24 123 24H155C156.7 24 158 22.7 158 21V3C158 1.3 156.6 0 155 0Z" fill="black"/>
<path d="M155 1C156.1 1 157 1.9 157 3V21C157 22.1 156.1 23 155 23H123C121.9 23 121 22.1 121 21V3C121 1.9 121.9 1 123 1H155Z" fill="white"/>
<path d="M143.9 8.3C144.1 7.3 143.9 6.6 143.3 6C142.7 5.3 141.6 5 140.2 5H136.1C135.8 5 135.6 5.2 135.5 5.5L134 15.6C134 15.8 134.1 16 134.3 16H137L137.4 12.6L139.2 10.4L143.9 8.3Z" fill="#003087"/>
<path d="M143.9 8.2998L143.7 8.4998C143.2 11.2998 141.5 12.2998 139.1 12.2998H138C137.7 12.2998 137.5 12.4998 137.4 12.7998L136.8 16.6998L136.6 17.6998C136.6 17.8998 136.7 18.0998 136.9 18.0998H139C139.3 18.0998 139.5 17.8998 139.5 17.6998V17.5998L139.9 15.1998V15.0998C139.9 14.8998 140.2 14.6998 140.4 14.6998H140.7C142.8 14.6998 144.4 13.8998 144.8 11.4998C145 10.4998 144.9 9.6998 144.4 9.0998C144.3 8.5998 144.1 8.3998 143.9 8.2998Z" fill="#3086C8"/>
<path d="M143.3 8.0998C143.2 7.9998 143.1 7.9998 143 7.9998C142.9 7.9998 142.8 7.9998 142.7 7.8998C142.4 7.7998 142 7.7998 141.6 7.7998H138.6C138.5 7.7998 138.4 7.7998 138.4 7.8998C138.2 7.9998 138.1 8.0998 138.1 8.2998L137.4 12.6998V12.7998C137.4 12.4998 137.7 12.2998 138 12.2998H139.3C141.8 12.2998 143.4 11.2998 143.9 8.4998V8.2998C143.8 8.1998 143.6 8.0998 143.4 8.0998H143.3Z" fill="#012169"/>
</g>
<g clip-path="url(#clip3_842_8069)">
<path opacity="0.07" d="M115 0H83C81.3 0 80 1.3 80 3V21C80 22.7 81.4 24 83 24H115C116.7 24 118 22.7 118 21V3C118 1.3 116.6 0 115 0Z" fill="black"/>
<path d="M115 1C116.1 1 117 1.9 117 3V21C117 22.1 116.1 23 115 23H83C81.9 23 81 22.1 81 21V3C81 1.9 81.9 1 83 1H115Z" fill="#006FCF"/>
<path d="M102.012 19.9356V11.5146L117 11.5276V13.8536L115.268 15.7056L117 17.5726V19.9476H114.234L112.764 18.3256L111.304 19.9536L102.012 19.9336V19.9356Z" fill="white"/>
<path d="M103.013 19.0124V12.4424H108.585V13.9554H104.817V14.9834H108.495V16.4714H104.817V17.4814H108.585V19.0124H103.013Z" fill="#006FCF"/>
<path d="M108.557 19.0124L111.64 15.7234L108.557 12.4414H110.943L112.827 14.5244L114.717 12.4424H117V12.4934L113.983 15.7234L117 18.9204V19.0134H114.693L112.776 16.9104L110.878 19.0144H108.557V19.0124Z" fill="#006FCF"/>
<path d="M102.71 4.04004H106.324L107.593 6.92104V4.04004H112.053L112.823 6.19904L113.594 4.04004H117V12.461H99L102.71 4.04004Z" fill="white"/>
<path d="M103.395 4.95508L100.479 11.5211H102.479L103.029 10.2061H106.009L106.559 11.5211H108.609L105.705 4.95508H103.395ZM103.645 8.73208L104.52 6.64208L105.393 8.73208H103.645Z" fill="#006FCF"/>
<path d="M108.581 11.5201V4.95312L111.392 4.96312L112.84 9.00012L114.296 4.95412H117V11.5191L115.26 11.5351V7.02513L113.616 11.5191H112.026L110.35 7.01013V11.5201H108.582H108.581Z" fill="#006FCF"/>
</g>
<g clip-path="url(#clip4_842_8069)">
<path opacity="0.07" d="M75 0H43C41.3 0 40 1.3 40 3V21C40 22.7 41.4 24 43 24H75C76.7 24 78 22.7 78 21V3C78 1.3 76.6 0 75 0Z" fill="black"/>
<path d="M75 1C76.1 1 77 1.9 77 3V21C77 22.1 76.1 23 75 23H43C41.9 23 41 22.1 41 21V3C41 1.9 41.9 1 43 1H75Z" fill="white"/>
<path d="M55 19C58.866 19 62 15.866 62 12C62 8.13401 58.866 5 55 5C51.134 5 48 8.13401 48 12C48 15.866 51.134 19 55 19Z" fill="#EB001B"/>
<path d="M63 19C66.866 19 70 15.866 70 12C70 8.13401 66.866 5 63 5C59.134 5 56 8.13401 56 12C56 15.866 59.134 19 63 19Z" fill="#F79E1B"/>
<path d="M62 11.9998C62 9.5998 60.8 7.4998 59 6.2998C57.2 7.5998 56 9.6998 56 11.9998C56 14.2998 57.2 16.4998 59 17.6998C60.8 16.4998 62 14.3998 62 11.9998Z" fill="#FF5F00"/>
</g>
<g clip-path="url(#clip5_842_8069)">
<path opacity="0.07" d="M35 0H3C1.3 0 0 1.3 0 3V21C0 22.7 1.4 24 3 24H35C36.7 24 38 22.7 38 21V3C38 1.3 36.6 0 35 0Z" fill="black"/>
<path d="M35 1C36.1 1 37 1.9 37 3V21C37 22.1 36.1 23 35 23H3C1.9 23 1 22.1 1 21V3C1 1.9 1.9 1 3 1H35Z" fill="white"/>
<path d="M28.3 10.1H28C27.6 11.1 27.3 11.6 27 13.1H28.9C28.6 11.6 28.6 10.9 28.3 10.1ZM31.2 16H29.5C29.4 16 29.4 16 29.3 15.9L29.1 15L29 14.8H26.6C26.5 14.8 26.4 14.8 26.4 15L26.1 15.9C26.1 16 26 16 26 16H23.9L24.1 15.5L27 8.7C27 8.2 27.3 8 27.8 8H29.3C29.4 8 29.5 8 29.5 8.2L30.9 14.7C31 15.1 31.1 15.4 31.1 15.8C31.2 15.9 31.2 15.9 31.2 16ZM17.8 15.7L18.2 13.9C18.3 13.9 18.4 14 18.4 14C19.1 14.3 19.8 14.5 20.5 14.4C20.7 14.4 21 14.3 21.2 14.2C21.7 14 21.7 13.5 21.3 13.1C21.1 12.9 20.8 12.8 20.5 12.6C20.1 12.4 19.7 12.2 19.4 11.9C18.2 10.9 18.6 9.5 19.3 8.8C19.9 8.4 20.2 8 21 8C22.2 8 23.5 8 24.1 8.2H24.2C24.1 8.8 24 9.3 23.8 9.9C23.3 9.7 22.8 9.5 22.3 9.5C22 9.5 21.7 9.5 21.4 9.6C21.2 9.6 21.1 9.7 21 9.8C20.8 10 20.8 10.3 21 10.5L21.5 10.9C21.9 11.1 22.3 11.3 22.6 11.5C23.1 11.8 23.6 12.3 23.7 12.9C23.9 13.8 23.6 14.6 22.8 15.2C22.3 15.6 22.1 15.8 21.4 15.8C20 15.8 18.9 15.9 18 15.6C17.9 15.8 17.9 15.8 17.8 15.7ZM14.3 16C14.4 15.3 14.4 15.3 14.5 15C15 12.8 15.5 10.5 15.9 8.3C16 8.1 16 8 16.2 8H18C17.8 9.2 17.6 10.1 17.3 11.2C17 12.7 16.7 14.2 16.3 15.7C16.3 15.9 16.2 15.9 16 15.9M5 8.2C5 8.1 5.2 8 5.3 8H8.7C9.2 8 9.6 8.3 9.7 8.8L10.6 13.2C10.6 13.3 10.6 13.3 10.7 13.4C10.7 13.3 10.8 13.3 10.8 13.3L12.9 8.2C12.8 8.1 12.9 8 13 8H15.1C15.1 8.1 15.1 8.1 15 8.2L11.9 15.5C11.8 15.7 11.8 15.8 11.7 15.9C11.6 16 11.4 15.9 11.2 15.9H9.7C9.6 15.9 9.5 15.9 9.5 15.7L7.9 9.5C7.7 9.3 7.4 9 7 8.9C6.4 8.6 5.3 8.4 5.1 8.4L5 8.2Z" fill="#142688"/>
</g>
<defs>
<linearGradient id="paint0_linear_842_8069" x1="221.657" y1="12.275" x2="219.632" y2="9.10405" gradientUnits="userSpaceOnUse">
<stop stop-color="#F89F20"/>
<stop offset="0.25" stop-color="#F79A20"/>
<stop offset="0.533" stop-color="#F68D20"/>
<stop offset="0.62" stop-color="#F58720"/>
<stop offset="0.723" stop-color="#F48120"/>
<stop offset="1" stop-color="#F37521"/>
</linearGradient>
<linearGradient id="paint1_linear_842_8069" x1="221.338" y1="12.232" x2="218.378" y2="6.44605" gradientUnits="userSpaceOnUse">
<stop stop-color="#F58720"/>
<stop offset="0.359" stop-color="#E16F27"/>
<stop offset="0.703" stop-color="#D4602C"/>
<stop offset="0.982" stop-color="#D05B2E"/>
</linearGradient>
<clipPath id="clip0_842_8069">
<rect width="38" height="24" fill="white" transform="translate(200)"/>
</clipPath>
<clipPath id="clip1_842_8069">
<rect width="38" height="24" fill="white" transform="translate(160)"/>
</clipPath>
<clipPath id="clip2_842_8069">
<rect width="38" height="24" fill="white" transform="translate(120)"/>
</clipPath>
<clipPath id="clip3_842_8069">
<rect width="38" height="24" fill="white" transform="translate(80)"/>
</clipPath>
<clipPath id="clip4_842_8069">
<rect width="38" height="24" fill="white" transform="translate(40)"/>
</clipPath>
<clipPath id="clip5_842_8069">
<rect width="38" height="24" fill="white"/>
</clipPath>
</defs>
</svg>
