
<svg width="24" height="24" viewBox="0 0 24 24" fill="none" xmlns="http://www.w3.org/2000/svg">
<g clip-path="url(#clip0_1049_10698)">
<path d="M24 12.0731C24 5.4046 18.6281 0 12 0C5.37188 0 0 5.4046 0 12.0731C0 18.1003 4.38749 23.0945 10.125 24V15.5629H7.07812V12.0731H10.125V9.41324C10.125 6.38789 11.9156 4.71605 14.6579 4.71605C15.9703 4.71605 17.3437 4.95185 17.3437 4.95185V7.92297H15.8297C14.3391 7.92297 13.8749 8.85439 13.8749 9.80939V12.0731H17.2031L16.6711 15.5629H13.8749V24C19.6125 23.0945 24 18.1003 24 12.0731Z" fill="black"/>
</g>
<defs>
<clipPath id="clip0_1049_10698">
<rect width="24" height="24" fill="white"/>
</clipPath>
</defs>
</svg>
