
<svg width="18" height="18" viewBox="0 0 18 18" fill="none" xmlns="http://www.w3.org/2000/svg">
<path d="M9.00005 15.3002C10.75 15.3002 12.2375 14.6877 13.4625 13.4627C14.6875 12.2377 15.3 10.7502 15.3 9.0002H13.95C13.95 10.3627 13.4657 11.5283 12.4969 12.4971C11.5282 13.4658 10.3625 13.9502 9.00005 13.9502C7.63755 13.9502 6.47192 13.4658 5.50317 12.4971C4.53442 11.5283 4.05005 10.3627 4.05005 9.0002C4.05005 7.6377 4.53442 6.47207 5.50317 5.50332C6.47192 4.53457 7.63755 4.0502 9.00005 4.0502C9.77505 4.0502 10.491 4.21019 11.1479 4.53019C11.8046 4.85019 12.3574 5.2902 12.8063 5.8502H10.8V7.2002H15.3V2.7002H13.95V5.1377C13.375 4.3877 12.6594 3.79395 11.8032 3.35645C10.9469 2.91895 10.0125 2.7002 9.00005 2.7002C8.12505 2.7002 7.30549 2.86644 6.54136 3.19894C5.77711 3.53144 5.11211 3.98063 4.54636 4.54651C3.98049 5.11226 3.5313 5.77726 3.1988 6.54151C2.8663 7.30563 2.70005 8.1252 2.70005 9.0002C2.70005 9.8752 2.8663 10.6948 3.1988 11.4589C3.5313 12.2231 3.98049 12.8881 4.54636 13.4539C5.11211 14.0198 5.77711 14.4689 6.54136 14.8014C7.30549 15.1339 8.12505 15.3002 9.00005 15.3002Z" fill="black"/>
</svg>
