<svg width="24" height="24" viewBox="0 0 24 24" fill="none" xmlns="http://www.w3.org/2000/svg">
<path d="M5.125 21.75C4.60933 21.75 4.16792 21.5664 3.80075 21.1992C3.43358 20.8321 3.25 20.3907 3.25 19.875V8.075C3.25 7.55933 3.43358 7.11792 3.80075 6.75075C4.16792 6.38358 4.60933 6.2 5.125 6.2H7.175C7.175 4.86667 7.64525 3.72917 8.58575 2.7875C9.52642 1.84583 10.6639 1.375 11.9982 1.375C13.3327 1.375 14.4708 1.84542 15.4125 2.78625C16.3542 3.72725 16.825 4.86517 16.825 6.2H18.875C19.3907 6.2 19.8321 6.38358 20.1992 6.75075C20.5664 7.11792 20.75 7.55933 20.75 8.075V19.875C20.75 20.3907 20.5664 20.8321 20.1992 21.1992C19.8321 21.5664 19.3907 21.75 18.875 21.75H5.125ZM9.05 6.2H14.95C14.95 5.38333 14.6635 4.6875 14.0905 4.1125C13.5175 3.5375 12.8217 3.25 12.003 3.25C11.1843 3.25 10.4875 3.53683 9.9125 4.1105C9.3375 4.684 9.05 5.3805 9.05 6.2ZM11.9875 13.875C13.2625 13.875 14.3667 13.4625 15.3 12.6375C16.2333 11.8125 16.6958 10.925 16.6875 9.975C16.6875 9.71933 16.5958 9.50125 16.4125 9.32075C16.2292 9.14025 16.0065 9.05 15.7445 9.05C15.5288 9.05 15.3362 9.12083 15.1667 9.2625C14.9972 9.40417 14.875 9.60833 14.8 9.875C14.6167 10.5083 14.2625 11.0208 13.7375 11.4125C13.2125 11.8042 12.6292 12 11.9875 12C11.3458 12 10.7604 11.8042 10.2313 11.4125C9.70208 11.0208 9.35 10.5083 9.175 9.875C9.1 9.6 8.98125 9.39375 8.81875 9.25625C8.65625 9.11875 8.46775 9.05 8.25325 9.05C7.99275 9.05 7.76875 9.14025 7.58125 9.32075C7.39375 9.50125 7.3 9.71933 7.3 9.975C7.3 10.925 7.7625 11.8125 8.6875 12.6375C9.6125 13.4625 10.7125 13.875 11.9875 13.875Z" fill="black"/>
</svg>