
<svg width="32" height="32" viewBox="0 0 32 32" fill="none" xmlns="http://www.w3.org/2000/svg">
<path d="M14.8 25.6994V16.6994L7.19999 12.2994V21.2994L14.8 25.6994ZM17.2 25.6994L24.8 21.3327V12.3327L17.2 16.6994V25.6994ZM14.8 28.4994L5.99999 23.3994C5.61999 23.1798 5.32499 22.8902 5.11499 22.5307C4.90499 22.1714 4.79999 21.772 4.79999 21.3327V10.666C4.79999 10.2267 4.90499 9.82735 5.11499 9.46802C5.32499 9.10846 5.61999 8.81891 5.99999 8.59935L14.8 3.49935C15.1807 3.27713 15.5814 3.16602 16.0023 3.16602C16.423 3.16602 16.8222 3.27713 17.2 3.49935L26 8.59935C26.38 8.81891 26.675 9.10846 26.885 9.46802C27.095 9.82735 27.2 10.2267 27.2 10.666V21.3327C27.2 21.772 27.095 22.1714 26.885 22.5307C26.675 22.8902 26.38 23.1798 26 23.3994L17.2 28.4994C16.8193 28.7216 16.4185 28.8327 15.9977 28.8327C15.577 28.8327 15.1778 28.7216 14.8 28.4994ZM21.0667 11.666L23.8333 10.0994L15.9667 5.59935L13.3 7.16602L21.0667 11.666ZM16 14.5994L18.7333 13.0327L10.8333 8.56602L8.16666 10.0994L16 14.5994Z" fill="#fff"/>
</svg>
