
<svg width="24" height="24" viewBox="0 0 24 24" fill="none" xmlns="http://www.w3.org/2000/svg">
<g clip-path="url(#clip0_1049_10704)">
<path d="M20.0263 20.0267H16.648V14.7361C16.648 13.4745 16.6255 11.8504 14.891 11.8504C13.1315 11.8504 12.8623 13.225 12.8623 14.6442V20.0264H9.48405V9.14666H12.7272V10.6335H12.7726C13.0971 10.0785 13.5661 9.62201 14.1296 9.31253C14.6931 9.00304 15.33 8.85219 15.9724 8.87604C19.3964 8.87604 20.0277 11.1283 20.0277 14.0583L20.0263 20.0267ZM5.67226 7.65948C5.28452 7.65955 4.90547 7.54463 4.58304 7.32927C4.26061 7.1139 4.00928 6.80776 3.86083 6.44955C3.71239 6.09134 3.67349 5.69715 3.74907 5.31684C3.82464 4.93652 4.01129 4.58716 4.28542 4.31293C4.55954 4.0387 4.90882 3.85192 5.2891 3.7762C5.66937 3.70049 6.06356 3.73924 6.42181 3.88756C6.78006 4.03589 7.08628 4.28711 7.30176 4.60948C7.51723 4.93184 7.63228 5.31087 7.63235 5.69862C7.63239 5.95608 7.58173 6.21102 7.48325 6.4489C7.38477 6.68677 7.24041 6.90293 7.05839 7.08501C6.87638 7.26709 6.66029 7.41154 6.42246 7.51011C6.18463 7.60867 5.92971 7.65943 5.67226 7.65948ZM7.36138 20.0267H3.97962V9.14666H7.36138V20.0267ZM21.7105 0.601162H2.28205C1.84108 0.596186 1.41617 0.766489 1.10069 1.07465C0.785221 1.38281 0.604991 1.80361 0.599609 2.24459V21.7543C0.604807 22.1955 0.784921 22.6166 1.10038 22.9251C1.41585 23.2335 1.84086 23.4042 2.28205 23.3995H21.7105C22.1526 23.405 22.5787 23.2349 22.8955 22.9264C23.2122 22.6179 23.3935 22.1964 23.3996 21.7543V2.24319C23.3933 1.80133 23.2119 1.38005 22.8951 1.0719C22.5784 0.763744 22.1523 0.593927 21.7105 0.599755" fill="black"/>
</g>
<defs>
<clipPath id="clip0_1049_10704">
<rect width="24" height="24" fill="white"/>
</clipPath>
</defs>
</svg>
