
<svg width="32" height="32" viewBox="0 0 32 32" fill="none" xmlns="http://www.w3.org/2000/svg">
<path d="M28.3013 15.4825L25.7663 12.8623L26.2771 9.25212C26.3466 8.76112 26.0142 8.30357 25.5257 8.2179L21.9347 7.58827L20.226 4.36745C19.9936 3.92927 19.4554 3.75486 19.0102 3.97242L15.7345 5.57388L12.459 3.97254C12.0134 3.75474 11.4757 3.92952 11.2431 4.36757L9.53443 7.58839L5.94345 8.21802C5.45502 8.30357 5.1225 8.76124 5.192 9.25224L5.70273 12.8625L3.16767 15.4825C2.82289 15.8388 2.82289 16.4044 3.16767 16.7608L5.70261 19.3811L5.19187 22.9914C5.1225 23.4823 5.4549 23.9398 5.94321 24.0256L9.53431 24.6556L11.2431 27.8761C11.4755 28.3141 12.0134 28.4889 12.4589 28.2711L15.7344 26.6702L19.0102 28.2711C19.14 28.3346 19.2775 28.3646 19.4132 28.3646C19.7431 28.3646 20.0611 28.1864 20.2258 27.8761L21.9347 24.6556L25.5258 24.0256C26.0141 23.94 26.3466 23.4823 26.2771 22.9914L25.7663 19.3811L28.3014 16.7608C28.6462 16.4044 28.6462 15.8389 28.3013 15.4825ZM24.1326 18.4258C23.9355 18.6295 23.8434 18.913 23.8831 19.1938L24.3323 22.3685L21.1745 22.9225C20.8953 22.9716 20.6542 23.1467 20.5214 23.3971L19.0187 26.229L16.1381 24.8212C16.0108 24.759 15.8726 24.7278 15.7344 24.7278C15.5962 24.7278 15.4581 24.759 15.3308 24.8212L12.4504 26.229L10.9478 23.3971C10.8149 23.1467 10.5738 22.9716 10.2946 22.9225L7.13677 22.3685L7.58586 19.1938C7.62557 18.9131 7.53352 18.6296 7.33631 18.4259L5.1073 16.1218L7.33631 13.8179C7.5334 13.6142 7.62557 13.3307 7.58586 13.05L7.13677 9.87538L10.2945 9.32174C10.5738 9.27284 10.8149 9.09756 10.9479 8.84716L12.4504 6.01488L15.3306 7.42305C15.5853 7.5477 15.8832 7.5477 16.1381 7.42305L19.0186 6.01488L20.5212 8.84716C20.6541 9.09756 20.8952 9.27284 21.1745 9.32174L24.3322 9.87538L23.883 13.05C23.8433 13.3308 23.9353 13.6142 24.1326 13.818L26.3616 16.1218L24.1326 18.4258Z" fill="black"/>
<path d="M12.8148 15.4284C14.0422 15.4284 15.0406 14.43 15.0406 13.2029C15.0406 11.9752 14.0422 10.9766 12.8148 10.9766C11.5873 10.9766 10.5887 11.9752 10.5887 13.2029C10.5887 14.4301 11.5874 15.4284 12.8148 15.4284ZM12.8148 12.4474C13.2312 12.4474 13.5698 12.7863 13.5698 13.2029C13.5698 13.6191 13.231 13.9576 12.8148 13.9576C12.3983 13.9576 12.0596 13.619 12.0596 13.2029C12.0596 12.7863 12.3983 12.4474 12.8148 12.4474Z" fill="black"/>
<path d="M20.1748 11.6822C19.8877 11.395 19.4218 11.3949 19.1349 11.6822L11.2945 19.5225C11.0073 19.8097 11.0073 20.2753 11.2945 20.5625C11.4382 20.7061 11.6263 20.7778 11.8146 20.7778C12.0027 20.7778 12.191 20.706 12.3346 20.5625L20.1749 12.7222C20.4619 12.435 20.4619 11.9694 20.1748 11.6822Z" fill="black"/>
<path d="M18.654 16.8145C17.4268 16.8145 16.4285 17.8129 16.4285 19.04C16.4285 20.2677 17.4269 21.2663 18.654 21.2663C19.8817 21.2663 20.8804 20.2677 20.8804 19.04C20.8804 17.8129 19.8817 16.8145 18.654 16.8145ZM18.654 19.7957C18.2379 19.7957 17.8993 19.4568 17.8993 19.0402C17.8993 18.624 18.2379 18.2854 18.654 18.2854C19.0705 18.2854 19.4095 18.624 19.4095 19.0402C19.4095 19.4566 19.0706 19.7957 18.654 19.7957Z" fill="black"/>
</svg>
