<svg width="18" height="20" viewBox="0 0 18 20" fill="none" xmlns="http://www.w3.org/2000/svg">
<path d="M12.2622 14.6363C12.1692 14.5166 12.1275 14.3648 12.1464 14.2144C12.1652 14.0639 12.2431 13.9271 12.3628 13.8341C12.4825 13.741 12.6343 13.6993 12.7848 13.7182C12.9352 13.737 13.072 13.8149 13.1651 13.9346L17.165 19.0774C17.2111 19.1367 17.245 19.2044 17.2649 19.2768C17.2848 19.3493 17.2902 19.4249 17.2809 19.4994C17.2715 19.5739 17.2476 19.6458 17.2105 19.711C17.1734 19.7763 17.1237 19.8336 17.0644 19.8797C17.0052 19.9257 16.9374 19.9597 16.865 19.9796C16.7926 19.9994 16.717 20.0049 16.6425 19.9955C16.568 19.9862 16.4961 19.9623 16.4308 19.9251C16.3655 19.888 16.3082 19.8384 16.2622 19.7791L12.2622 14.6363ZM8.42802 15.4283C4.16752 15.4283 0.713867 11.9747 0.713867 7.71416C0.713867 3.45366 4.16752 0 8.42802 0C12.6885 0 16.1422 3.45366 16.1422 7.71416C16.1422 11.9747 12.6885 15.4283 8.42802 15.4283ZM8.42802 14.2855C12.0571 14.2855 14.9993 11.3432 14.9993 7.71416C14.9993 4.08507 12.0571 1.14284 8.42802 1.14284C4.79894 1.14284 1.8567 4.08507 1.8567 7.71416C1.8567 11.3432 4.79894 14.2855 8.42802 14.2855Z" fill="#7F7F7F"/>
</svg>
