<svg width="24" height="24" viewBox="0 0 24 24" fill="none" xmlns="http://www.w3.org/2000/svg">
<path d="M4.1875 17.7998C3.92917 17.7998 3.70833 17.7081 3.525 17.5248C3.34167 17.3415 3.25 17.1206 3.25 16.8623C3.25 16.604 3.34167 16.3831 3.525 16.1998C3.70833 16.0165 3.92917 15.9248 4.1875 15.9248H19.8125C20.0708 15.9248 20.2917 16.0165 20.475 16.1998C20.6583 16.3831 20.75 16.604 20.75 16.8623C20.75 17.1206 20.6583 17.3415 20.475 17.5248C20.2917 17.7081 20.0708 17.7998 19.8125 17.7998H4.1875ZM4.1875 12.9248C3.92917 12.9248 3.70833 12.8331 3.525 12.6498C3.34167 12.4665 3.25 12.2456 3.25 11.9873C3.25 11.729 3.34167 11.5081 3.525 11.3248C3.70833 11.1415 3.92917 11.0498 4.1875 11.0498H19.8125C20.0708 11.0498 20.2917 11.1415 20.475 11.3248C20.6583 11.5081 20.75 11.729 20.75 11.9873C20.75 12.2456 20.6583 12.4665 20.475 12.6498C20.2917 12.8331 20.0708 12.9248 19.8125 12.9248H4.1875ZM4.1875 8.0498C3.92917 8.0498 3.70833 7.95814 3.525 7.7748C3.34167 7.59147 3.25 7.37064 3.25 7.1123C3.25 6.85397 3.34167 6.63314 3.525 6.4498C3.70833 6.26647 3.92917 6.1748 4.1875 6.1748H19.8125C20.0708 6.1748 20.2917 6.26647 20.475 6.4498C20.6583 6.63314 20.75 6.85397 20.75 7.1123C20.75 7.37064 20.6583 7.59147 20.475 7.7748C20.2917 7.95814 20.0708 8.0498 19.8125 8.0498H4.1875Z" fill="#fff"/>
</svg>
