<svg width="28" height="28" viewBox="0 0 28 28" fill="none" xmlns="http://www.w3.org/2000/svg">
<path d="M14.0001 13.8816C12.647 13.8816 11.4914 13.4026 10.5334 12.4446C9.57537 11.4866 9.09635 10.331 9.09635 8.97785C9.09635 7.6249 9.57537 6.47049 10.5334 5.5146C11.4914 4.5589 12.647 4.08105 14.0001 4.08105C15.3533 4.08105 16.5089 4.5589 17.4669 5.5146C18.4249 6.47049 18.9039 7.6249 18.9039 8.97785C18.9039 10.331 18.4249 11.4866 17.4669 12.4446C16.5089 13.4026 15.3533 13.8816 14.0001 13.8816ZM4.42969 21.0353V20.1717C4.42969 19.4686 4.61149 18.8214 4.9751 18.2301C5.33852 17.6388 5.82308 17.188 6.42877 16.8776C7.64833 16.2702 8.88966 15.8134 10.1528 15.5074C11.4157 15.2013 12.6981 15.0483 14.0001 15.0483C15.3113 15.0483 16.5984 15.2002 17.8615 15.5039C19.1246 15.8076 20.3613 16.2632 21.5715 16.8706C22.1772 17.181 22.6618 17.6306 23.0252 18.2196C23.3888 18.8088 23.5706 19.4595 23.5706 20.1717V21.0353C23.5706 21.77 23.3119 22.396 22.7945 22.9134C22.2771 23.4308 21.651 23.6895 20.9164 23.6895H7.08385C6.34924 23.6895 5.72323 23.4308 5.20581 22.9134C4.6884 22.396 4.42969 21.77 4.42969 21.0353Z" fill="black"/>
</svg>
