
<svg width="32" height="32" viewBox="0 0 32 32" fill="none" xmlns="http://www.w3.org/2000/svg">
<path d="M15.6121 2H15.5497C9.20376 2 4.27499 6.75943 2.6796 11.501C2.19831 12.9449 1.52094 15.8683 2.50135 19.1839C3.94522 24.1037 8.87399 29.0592 15.514 29.0592H15.6121C22.9473 29.0057 29.1417 22.8024 29.1417 15.5207C29.1417 8.22113 22.9473 2.02674 15.6121 2ZM15.6031 27.3212H15.514C9.72962 27.3212 5.44257 22.9985 4.17695 18.7026C3.33024 15.8416 3.90957 13.3103 4.32847 12.0625C5.72778 7.91809 10.0327 3.73799 15.5586 3.73799H15.6031C22.0025 3.76473 27.4037 9.17479 27.4037 15.5296C27.4037 21.8755 21.9936 27.2767 15.6031 27.3212Z" fill="black"/>
<path d="M16.1914 14.7828C14.4445 14.3728 14.0256 14.0609 14.0256 13.3568V13.33C14.0256 12.7329 14.5693 12.2605 15.5051 12.2605C16.2181 12.2605 16.8955 12.4922 17.5907 12.9468C17.7244 13.0181 17.8581 13.0626 18.0096 13.0626C18.4196 13.0626 18.7583 12.7329 18.7583 12.3229C18.7626 12.1936 18.7318 12.0657 18.669 11.9526C18.6062 11.8396 18.5138 11.7457 18.4018 11.6812C17.8119 11.2856 17.1427 11.024 16.441 10.9147C16.4588 10.8434 16.4855 10.781 16.4855 10.7008V8.63299C16.4637 8.4177 16.3627 8.21817 16.2022 8.07308C16.0416 7.92799 15.8329 7.84766 15.6165 7.84766C15.4001 7.84766 15.1914 7.92799 15.0309 8.07308C14.8703 8.21817 14.7694 8.4177 14.7475 8.63299V10.7008C14.7475 10.781 14.7653 10.8434 14.7832 10.9147C13.3839 11.1731 12.4302 12.1446 12.4302 13.4726V13.4994C12.4302 15.175 13.5176 15.7454 15.4605 16.2089C17.1361 16.601 17.5016 16.9486 17.5016 17.5993V17.626C17.5016 18.2944 16.8777 18.7668 15.8973 18.7668C14.9638 18.7653 14.0609 18.4338 13.3482 17.831C13.2141 17.7327 13.0509 17.6825 12.8848 17.6884C12.7256 17.6837 12.5691 17.7304 12.4386 17.8218C12.3081 17.9131 12.2106 18.0441 12.1606 18.1953C12.1105 18.3465 12.1106 18.5098 12.1608 18.6609C12.2109 18.8121 12.3086 18.943 12.4391 19.0342C13.1521 19.569 13.9543 19.9077 14.7921 20.0681C14.7644 20.1485 14.7494 20.2327 14.7475 20.3177V22.3854C14.7694 22.6007 14.8703 22.8002 15.0309 22.9453C15.1914 23.0904 15.4001 23.1708 15.6165 23.1708C15.8329 23.1708 16.0416 23.0904 16.2022 22.9453C16.3627 22.8002 16.4637 22.6007 16.4855 22.3854V20.3177C16.4855 20.2553 16.4588 20.2018 16.4499 20.1394C18.0274 19.9433 19.097 18.9807 19.097 17.4656V17.4388C19.097 15.9415 18.1166 15.2552 16.1914 14.7828Z" fill="black"/>
</svg>
