
<svg width="104" height="24" viewBox="0 0 104 24" fill="none" xmlns="http://www.w3.org/2000/svg">
<g clip-path="url(#clip0_844_8078)">
<path d="M92.0017 0.982422C95.0207 0.982422 95.3973 0.993533 96.5817 1.04909C97.7651 1.10464 98.5707 1.2902 99.2795 1.56576C100.013 1.84797 100.631 2.2302 101.248 2.84686C101.813 3.4023 102.251 4.07418 102.529 4.81576C102.804 5.52353 102.991 6.3302 103.046 7.51353C103.098 8.69797 103.113 9.07464 103.113 12.0935C103.113 15.1124 103.102 15.4891 103.046 16.6736C102.991 17.8569 102.804 18.6624 102.529 19.3713C102.251 20.1133 101.814 20.7853 101.248 21.3403C100.693 21.9051 100.021 22.3421 99.2795 22.6213C98.5717 22.8957 97.7651 23.0824 96.5817 23.138C95.3973 23.1903 95.0207 23.2047 92.0017 23.2047C88.9829 23.2047 88.6062 23.1936 87.4217 23.138C86.2384 23.0824 85.4329 22.8957 84.724 22.6213C83.9821 22.3429 83.3101 21.9057 82.7551 21.3403C82.19 20.7848 81.7528 20.1129 81.474 19.3713C81.1984 18.6636 81.0128 17.8569 80.9573 16.6736C80.9051 15.4891 80.8906 15.1124 80.8906 12.0935C80.8906 9.07464 80.9017 8.69797 80.9573 7.51353C81.0128 6.32909 81.1984 5.52464 81.474 4.81576C81.752 4.07373 82.1893 3.40166 82.7551 2.84686C83.3103 2.28157 83.9822 1.84434 84.724 1.56576C85.4329 1.2902 86.2373 1.10464 87.4217 1.04909C88.6062 0.996866 88.9829 0.982422 92.0017 0.982422ZM92.0017 6.53797C90.5283 6.53797 89.1152 7.12329 88.0734 8.16516C87.0315 9.20702 86.4462 10.6201 86.4462 12.0935C86.4462 13.5669 87.0315 14.98 88.0734 16.0219C89.1152 17.0637 90.5283 17.6491 92.0017 17.6491C93.4752 17.6491 94.8883 17.0637 95.9301 16.0219C96.972 14.98 97.5573 13.5669 97.5573 12.0935C97.5573 10.6201 96.972 9.20702 95.9301 8.16516C94.8883 7.12329 93.4752 6.53797 92.0017 6.53797ZM99.224 6.2602C99.224 5.89184 99.0776 5.53857 98.8172 5.2781C98.5567 5.01764 98.2035 4.8713 97.8351 4.8713C97.4667 4.8713 97.1135 5.01764 96.8529 5.2781C96.5925 5.53857 96.4461 5.89184 96.4461 6.2602C96.4461 6.62856 96.5925 6.98182 96.8529 7.24229C97.1135 7.50276 97.4667 7.64909 97.8351 7.64909C98.2035 7.64909 98.5567 7.50276 98.8172 7.24229C99.0776 6.98182 99.224 6.62856 99.224 6.2602ZM92.0017 8.7602C92.8858 8.7602 93.7336 9.11138 94.3588 9.7365C94.9839 10.3616 95.3351 11.2095 95.3351 12.0935C95.3351 12.9776 94.9839 13.8255 94.3588 14.4505C93.7336 15.0757 92.8858 15.4269 92.0017 15.4269C91.1177 15.4269 90.2698 15.0757 89.6447 14.4505C89.0196 13.8255 88.6684 12.9776 88.6684 12.0935C88.6684 11.2095 89.0196 10.3616 89.6447 9.7365C90.2698 9.11138 91.1177 8.7602 92.0017 8.7602Z" fill="black"/>
</g>
<g clip-path="url(#clip1_844_8078)">
<path d="M64 12.0731C64 5.4046 58.6281 0 52 0C45.3719 0 40 5.4046 40 12.0731C40 18.1003 44.3875 23.0945 50.125 24V15.5629H47.0781V12.0731H50.125V9.41324C50.125 6.38789 51.9156 4.71605 54.6579 4.71605C55.9703 4.71605 57.3437 4.95185 57.3437 4.95185V7.92297H55.8297C54.3391 7.92297 53.8749 8.85439 53.8749 9.80939V12.0731H57.2031L56.6711 15.5629H53.8749V24C59.6125 23.0945 64 18.1003 64 12.0731Z" fill="black"/>
</g>
<path d="M13.8994 10.4713L21.3321 2.02148H19.5708L13.117 9.35833L7.96237 2.02148H2.01709L9.81193 13.1161L2.01709 21.977H3.7785L10.5939 14.2291L16.0376 21.977H21.9829L13.8994 10.4713ZM11.4869 13.2139L10.6972 12.1091L4.41317 3.31827H7.1186L12.1899 10.4128L12.9796 11.5175L19.5717 20.7392H16.8662L11.4869 13.2139Z" fill="black"/>
<defs>
<clipPath id="clip0_844_8078">
<rect width="24" height="24" fill="white" transform="translate(80)"/>
</clipPath>
<clipPath id="clip1_844_8078">
<rect width="24" height="24" fill="white" transform="translate(40)"/>
</clipPath>
</defs>
</svg>
