<svg width="16" height="15" viewBox="0 0 16 15" fill="none" xmlns="http://www.w3.org/2000/svg">
<path d="M8 14.7498L6.9125 13.7748C5.65 12.6373 4.60625 11.6561 3.78125 10.8311C2.95625 10.0061 2.3 9.26543 1.8125 8.60918C1.325 7.95293 0.984375 7.34981 0.790625 6.79981C0.596875 6.24981 0.5 5.68731 0.5 5.11231C0.5 3.93731 0.89375 2.95605 1.68125 2.16855C2.46875 1.38105 3.45 0.987305 4.625 0.987305C5.275 0.987305 5.89375 1.1248 6.48125 1.3998C7.06875 1.6748 7.575 2.0623 8 2.5623C8.425 2.0623 8.93125 1.6748 9.51875 1.3998C10.1063 1.1248 10.725 0.987305 11.375 0.987305C12.55 0.987305 13.5313 1.38105 14.3188 2.16855C15.1063 2.95605 15.5 3.93731 15.5 5.11231C15.5 5.68731 15.4031 6.24981 15.2094 6.79981C15.0156 7.34981 14.675 7.95293 14.1875 8.60918C13.7 9.26543 13.0438 10.0061 12.2188 10.8311C11.3938 11.6561 10.35 12.6373 9.0875 13.7748L8 14.7498ZM8 12.7248C9.2 11.6498 10.1875 10.7279 10.9625 9.95918C11.7375 9.19043 12.35 8.52168 12.8 7.95293C13.25 7.38418 13.5625 6.87793 13.7375 6.43418C13.9125 5.99043 14 5.54981 14 5.11231C14 4.36231 13.75 3.73731 13.25 3.23731C12.75 2.7373 12.125 2.4873 11.375 2.4873C10.7875 2.4873 10.2438 2.65293 9.74375 2.98418C9.24375 3.31543 8.9 3.73731 8.7125 4.24981H7.2875C7.1 3.73731 6.75625 3.31543 6.25625 2.98418C5.75625 2.65293 5.2125 2.4873 4.625 2.4873C3.875 2.4873 3.25 2.7373 2.75 3.23731C2.25 3.73731 2 4.36231 2 5.11231C2 5.54981 2.0875 5.99043 2.2625 6.43418C2.4375 6.87793 2.75 7.38418 3.2 7.95293C3.65 8.52168 4.2625 9.19043 5.0375 9.95918C5.8125 10.7279 6.8 11.6498 8 12.7248Z" fill="#404040"/>
</svg>
