<svg width="112" height="112" viewBox="0 0 112 112" fill="none" xmlns="http://www.w3.org/2000/svg">
<path fill-rule="evenodd" clip-rule="evenodd" d="M112 0H0V112H112V0ZM24.1914 62.7297H33.8311L37.8008 67.8369C38.6841 66.7927 39.4307 65.5618 40.0396 64.1443C41.1743 61.5422 41.7422 58.3464 41.7422 54.5569C41.7422 50.7673 41.1743 47.5715 40.0396 44.9697C38.9219 42.3677 37.3413 40.3943 35.2983 39.0496C33.2549 37.7048 30.8623 37.0327 28.1206 37.0327C25.3789 37.0327 22.9868 37.7048 20.9434 39.0496C18.9004 40.3943 17.311 42.3677 16.1758 44.9697C15.0581 47.5715 14.4995 50.7673 14.4995 54.5569C14.4995 58.3464 15.0581 61.5422 16.1758 64.1443C17.311 66.7463 18.9004 68.7195 20.9434 70.0642C22.9868 71.4089 25.3789 72.0813 28.1206 72.0813C29.1519 72.0813 30.1343 71.9863 31.0669 71.7959L24.1914 62.7297ZM49.915 69.488C48.5151 72.0984 46.7905 74.3164 44.7412 76.1426L52.4297 85.781H41.8467L37.5283 80.4744C34.6323 81.5674 31.4966 82.1138 28.1206 82.1138C23.3535 82.1138 19.0747 81.0312 15.2852 78.8657C11.4956 76.7002 8.50098 73.5657 6.30078 69.4617C4.1001 65.3579 3 60.3896 3 54.5569C3 48.7068 4.1001 43.7297 6.30078 39.626C8.50098 35.522 11.4956 32.3962 15.2852 30.248C19.0747 28.0828 23.3535 27 28.1206 27C32.8535 27 37.1143 28.0828 40.9038 30.248C44.7109 32.3962 47.7144 35.522 49.915 39.626C52.1328 43.7297 53.2417 48.7068 53.2417 54.5569C53.2417 60.407 52.1328 65.384 49.915 69.488ZM75.6587 27.7334H87.001V72.0288H110V81.3804H75.6587V27.7334Z" fill="#0047FF"/>
</svg>
